# xmcd
#
# Track frame offsets:
#	150
#	20210
#	42024
#	58696
#	75585
#	77559
#	96877
#	115336
#	135142
#	152772
#	166866
#	184754
#	198391
#	215535
#	228907
#
# Disc length: 3622 seconds
#
# Revision: 0
# Processed by: cddbd v1.5.2PL0 Copyright (c) Steve Scherf et al.
# Submitted via: dBpowerAMP V4.0
#
DISCID=b90e240f
DTITLE=Scred Connexion - du mal à se confier
DYEAR=2001
DGENRE=Rap Français
TTITLE0=introduxion
TTITLE1=trop soule
TTITLE2=mission
TTITLE3=justice pour tous
TTITLE4=supposition
TTITLE5=on pense tous monnaie monnaie
TTITLE6=engrenage
TTITLE7=salut couzin
TTITLE8=renverser la vapeur
TTITLE9=dernier recours
TTITLE10=du mal à se confier
TTITLE11=la scred reprend du service
TTITLE12=on doit rien à personne
TTITLE13=dans l'arène
TTITLE14=j'ai vu trop de frères partir
EXTD=
EXTT0=
EXTT1=
EXTT2=
EXTT3=
EXTT4=
EXTT5=
EXTT6=
EXTT7=
EXTT8=
EXTT9=
EXTT10=
EXTT11=
EXTT12=
EXTT13=
EXTT14=
PLAYORDER=
